<svg xmlns="http://www.w3.org/2000/svg" width="920" height="270" viewBox="0 0 920 270">
  <rect width="100%" height="100%" rx="10" fill="#0d1117" stroke="#30363d"/>
  <text x="24" y="34" fill="#f0f6fc" font-family="Inter,Segoe UI,Arial,sans-serif" font-size="17" font-weight="700">📊 Live GitHub Analytics &amp; Activity Dashboard</text>
  <line x1="24" y1="48" x2="896" y2="48" stroke="#30363d"/>

  <g font-family="Inter,Segoe UI,Arial,sans-serif" text-anchor="middle">
    <text x="170" y="96" fill="#58a6ff" font-size="25" font-weight="700">157</text>
    <text x="170" y="119" fill="#f78166" font-size="12">Total Contributions</text>
    <text x="170" y="138" fill="#8b949e" font-size="10">Last 12 months</text>

    <text x="460" y="96" fill="#bc8cff" font-size="25" font-weight="700">1</text>
    <text x="460" y="119" fill="#bc8cff" font-size="12">Current Streak</text>
    <text x="460" y="138" fill="#8b949e" font-size="10">As of Sep 24, 2026</text>

    <text x="750" y="96" fill="#58a6ff" font-size="25" font-weight="700">8</text>
    <text x="750" y="119" fill="#f78166" font-size="12">Longest Streak</text>
    <text x="750" y="138" fill="#8b949e" font-size="10">Mar 01, 2026 – Mar 08, 2026</text>
  </g>

  <line x1="307" y1="62" x2="307" y2="143" stroke="#484f58"/>
  <line x1="613" y1="62" x2="613" y2="143" stroke="#484f58"/>

  <text x="24" y="178" fill="#f0f6fc" font-family="Inter,Segoe UI,Arial,sans-serif" font-size="12" font-weight="600">Contribution Matrix &amp; Activity Stream</text>
  <g><rect x="48" y="154" width="11" height="11" rx="2" fill="#161b22"><title>2025-09-26: 0 contributions</title></rect><rect x="48" y="168" width="11" height="11" rx="2" fill="#161b22"><title>2025-09-27: 0 contributions</title></rect><rect x="48" y="182" width="11" height="11" rx="2" fill="#161b22"><title>2025-09-28: 0 contributions</title></rect><rect x="48" y="196" width="11" height="11" rx="2" fill="#161b22"><title>2025-09-29: 0 contributions</title></rect><rect x="48" y="210" width="11" height="11" rx="2" fill="#161b22"><title>2025-09-30: 0 contributions</title></rect><rect x="48" y="224" width="11" height="11" rx="2" fill="#161b22"><title>2025-10-01: 0 contributions</title></rect><rect x="48" y="238" width="11" height="11" rx="2" fill="#161b22"><title>2025-10-02: 0 contributions</title></rect><rect x="62" y="154" width="11" height="11" rx="2" fill="#161b22"><title>2025-10-03: 0 contributions</title></rect><rect x="62" y="168" width="11" height="11" rx="2" fill="#161b22"><title>2025-10-04: 0 contributions</title></rect><rect x="62" y="182" width="11" height="11" rx="2" fill="#161b22"><title>2025-10-05: 0 contributions</title></rect><rect x="62" y="196" width="11" height="11" rx="2" fill="#161b22"><title>2025-10-06: 0 contributions</title></rect><rect x="62" y="210" width="11" height="11" rx="2" fill="#161b22"><title>2025-10-07: 0 contributions</title></rect><rect x="62" y="224" width="11" height="11" rx="2" fill="#161b22"><title>2025-10-08: 0 contributions</title></rect><rect x="62" y="238" width="11" height="11" rx="2" fill="#161b22"><title>2025-10-09: 0 contributions</title></rect><rect x="76" y="154" width="11" height="11" rx="2" fill="#161b22"><title>2025-10-10: 0 contributions</title></rect><rect x="76" y="168" width="11" height="11" rx="2" fill="#161b22"><title>2025-10-11: 0 contributions</title></rect><rect x="76" y="182" width="11" height="11" rx="2" fill="#161b22"><title>2025-10-12: 0 contributions</title></rect><rect x="76" y="196" width="11" height="11" rx="2" fill="#161b22"><title>2025-10-13: 0 contributions</title></rect><rect x="76" y="210" width="11" height="11" rx="2" fill="#161b22"><title>2025-10-14: 0 contributions</title></rect><rect x="76" y="224" width="11" height="11" rx="2" fill="#161b22"><title>2025-10-15: 0 contributions</title></rect><rect x="76" y="238" width="11" height="11" rx="2" fill="#161b22"><title>2025-10-16: 0 contributions</title></rect><rect x="90" y="154" width="11" height="11" rx="2" fill="#161b22"><title>2025-10-17: 0 contributions</title></rect><rect x="90" y="168" width="11" height="11" rx="2" fill="#161b22"><title>2025-10-18: 0 contributions</title></rect><rect x="90" y="182" width="11" height="11" rx="2" fill="#161b22"><title>2025-10-19: 0 contributions</title></rect><rect x="90" y="196" width="11" height="11" rx="2" fill="#161b22"><title>2025-10-20: 0 contributions</title></rect><rect x="90" y="210" width="11" height="11" rx="2" fill="#161b22"><title>2025-10-21: 0 contributions</title></rect><rect x="90" y="224" width="11" height="11" rx="2" fill="#161b22"><title>2025-10-22: 0 contributions</title></rect><rect x="90" y="238" width="11" height="11" rx="2" fill="#161b22"><title>2025-10-23: 0 contributions</title></rect><rect x="104" y="154" width="11" height="11" rx="2" fill="#161b22"><title>2025-10-24: 0 contributions</title></rect><rect x="104" y="168" width="11" height="11" rx="2" fill="#161b22"><title>2025-10-25: 0 contributions</title></rect><rect x="104" y="182" width="11" height="11" rx="2" fill="#161b22"><title>2025-10-26: 0 contributions</title></rect><rect x="104" y="196" width="11" height="11" rx="2" fill="#161b22"><title>2025-10-27: 0 contributions</title></rect><rect x="104" y="210" width="11" height="11" rx="2" fill="#161b22"><title>2025-10-28: 0 contributions</title></rect><rect x="104" y="224" width="11" height="11" rx="2" fill="#161b22"><title>2025-10-29: 0 contributions</title></rect><rect x="104" y="238" width="11" height="11" rx="2" fill="#161b22"><title>2025-10-30: 0 contributions</title></rect><rect x="118" y="154" width="11" height="11" rx="2" fill="#161b22"><title>2025-10-31: 0 contributions</title></rect><rect x="118" y="168" width="11" height="11" rx="2" fill="#161b22"><title>2025-11-01: 0 contributions</title></rect><rect x="118" y="182" width="11" height="11" rx="2" fill="#161b22"><title>2025-11-02: 0 contributions</title></rect><rect x="118" y="196" width="11" height="11" rx="2" fill="#161b22"><title>2025-11-03: 0 contributions</title></rect><rect x="118" y="210" width="11" height="11" rx="2" fill="#161b22"><title>2025-11-04: 0 contributions</title></rect><rect x="118" y="224" width="11" height="11" rx="2" fill="#161b22"><title>2025-11-05: 0 contributions</title></rect><rect x="118" y="238" width="11" height="11" rx="2" fill="#161b22"><title>2025-11-06: 0 contributions</title></rect><rect x="132" y="154" width="11" height="11" rx="2" fill="#161b22"><title>2025-11-07: 0 contributions</title></rect><rect x="132" y="168" width="11" height="11" rx="2" fill="#161b22"><title>2025-11-08: 0 contributions</title></rect><rect x="132" y="182" width="11" height="11" rx="2" fill="#161b22"><title>2025-11-09: 0 contributions</title></rect><rect x="132" y="196" width="11" height="11" rx="2" fill="#161b22"><title>2025-11-10: 0 contributions</title></rect><rect x="132" y="210" width="11" height="11" rx="2" fill="#161b22"><title>2025-11-11: 0 contributions</title></rect><rect x="132" y="224" width="11" height="11" rx="2" fill="#161b22"><title>2025-11-12: 0 contributions</title></rect><rect x="132" y="238" width="11" height="11" rx="2" fill="#161b22"><title>2025-11-13: 0 contributions</title></rect><rect x="146" y="154" width="11" height="11" rx="2" fill="#161b22"><title>2025-11-14: 0 contributions</title></rect><rect x="146" y="168" width="11" height="11" rx="2" fill="#161b22"><title>2025-11-15: 0 contributions</title></rect><rect x="146" y="182" width="11" height="11" rx="2" fill="#161b22"><title>2025-11-16: 0 contributions</title></rect><rect x="146" y="196" width="11" height="11" rx="2" fill="#161b22"><title>2025-11-17: 0 contributions</title></rect><rect x="146" y="210" width="11" height="11" rx="2" fill="#161b22"><title>2025-11-18: 0 contributions</title></rect><rect x="146" y="224" width="11" height="11" rx="2" fill="#161b22"><title>2025-11-19: 0 contributions</title></rect><rect x="146" y="238" width="11" height="11" rx="2" fill="#161b22"><title>2025-11-20: 0 contributions</title></rect><rect x="160" y="154" width="11" height="11" rx="2" fill="#161b22"><title>2025-11-21: 0 contributions</title></rect><rect x="160" y="168" width="11" height="11" rx="2" fill="#161b22"><title>2025-11-22: 0 contributions</title></rect><rect x="160" y="182" width="11" height="11" rx="2" fill="#161b22"><title>2025-11-23: 0 contributions</title></rect><rect x="160" y="196" width="11" height="11" rx="2" fill="#161b22"><title>2025-11-24: 0 contributions</title></rect><rect x="160" y="210" width="11" height="11" rx="2" fill="#161b22"><title>2025-11-25: 0 contributions</title></rect><rect x="160" y="224" width="11" height="11" rx="2" fill="#161b22"><title>2025-11-26: 0 contributions</title></rect><rect x="160" y="238" width="11" height="11" rx="2" fill="#161b22"><title>2025-11-27: 0 contributions</title></rect><rect x="174" y="154" width="11" height="11" rx="2" fill="#161b22"><title>2025-11-28: 0 contributions</title></rect><rect x="174" y="168" width="11" height="11" rx="2" fill="#161b22"><title>2025-11-29: 0 contributions</title></rect><rect x="174" y="182" width="11" height="11" rx="2" fill="#161b22"><title>2025-11-30: 0 contributions</title></rect><rect x="174" y="196" width="11" height="11" rx="2" fill="#161b22"><title>2025-12-01: 0 contributions</title></rect><rect x="174" y="210" width="11" height="11" rx="2" fill="#161b22"><title>2025-12-02: 0 contributions</title></rect><rect x="174" y="224" width="11" height="11" rx="2" fill="#161b22"><title>2025-12-03: 0 contributions</title></rect><rect x="174" y="238" width="11" height="11" rx="2" fill="#161b22"><title>2025-12-04: 0 contributions</title></rect><rect x="188" y="154" width="11" height="11" rx="2" fill="#161b22"><title>2025-12-05: 0 contributions</title></rect><rect x="188" y="168" width="11" height="11" rx="2" fill="#161b22"><title>2025-12-06: 0 contributions</title></rect><rect x="188" y="182" width="11" height="11" rx="2" fill="#161b22"><title>2025-12-07: 0 contributions</title></rect><rect x="188" y="196" width="11" height="11" rx="2" fill="#161b22"><title>2025-12-08: 0 contributions</title></rect><rect x="188" y="210" width="11" height="11" rx="2" fill="#161b22"><title>2025-12-09: 0 contributions</title></rect><rect x="188" y="224" width="11" height="11" rx="2" fill="#161b22"><title>2025-12-10: 0 contributions</title></rect><rect x="188" y="238" width="11" height="11" rx="2" fill="#161b22"><title>2025-12-11: 0 contributions</title></rect><rect x="202" y="154" width="11" height="11" rx="2" fill="#161b22"><title>2025-12-12: 0 contributions</title></rect><rect x="202" y="168" width="11" height="11" rx="2" fill="#161b22"><title>2025-12-13: 0 contributions</title></rect><rect x="202" y="182" width="11" height="11" rx="2" fill="#161b22"><title>2025-12-14: 0 contributions</title></rect><rect x="202" y="196" width="11" height="11" rx="2" fill="#161b22"><title>2025-12-15: 0 contributions</title></rect><rect x="202" y="210" width="11" height="11" rx="2" fill="#161b22"><title>2025-12-16: 0 contributions</title></rect><rect x="202" y="224" width="11" height="11" rx="2" fill="#161b22"><title>2025-12-17: 0 contributions</title></rect><rect x="202" y="238" width="11" height="11" rx="2" fill="#161b22"><title>2025-12-18: 0 contributions</title></rect><rect x="216" y="154" width="11" height="11" rx="2" fill="#161b22"><title>2025-12-19: 0 contributions</title></rect><rect x="216" y="168" width="11" height="11" rx="2" fill="#161b22"><title>2025-12-20: 0 contributions</title></rect><rect x="216" y="182" width="11" height="11" rx="2" fill="#161b22"><title>2025-12-21: 0 contributions</title></rect><rect x="216" y="196" width="11" height="11" rx="2" fill="#161b22"><title>2025-12-22: 0 contributions</title></rect><rect x="216" y="210" width="11" height="11" rx="2" fill="#161b22"><title>2025-12-23: 0 contributions</title></rect><rect x="216" y="224" width="11" height="11" rx="2" fill="#161b22"><title>2025-12-24: 0 contributions</title></rect><rect x="216" y="238" width="11" height="11" rx="2" fill="#161b22"><title>2025-12-25: 0 contributions</title></rect><rect x="230" y="154" width="11" height="11" rx="2" fill="#161b22"><title>2025-12-26: 0 contributions</title></rect><rect x="230" y="168" width="11" height="11" rx="2" fill="#161b22"><title>2025-12-27: 0 contributions</title></rect><rect x="230" y="182" width="11" height="11" rx="2" fill="#161b22"><title>2025-12-28: 0 contributions</title></rect><rect x="230" y="196" width="11" height="11" rx="2" fill="#161b22"><title>2025-12-29: 0 contributions</title></rect><rect x="230" y="210" width="11" height="11" rx="2" fill="#161b22"><title>2025-12-30: 0 contributions</title></rect><rect x="230" y="224" width="11" height="11" rx="2" fill="#161b22"><title>2025-12-31: 0 contributions</title></rect><rect x="230" y="238" width="11" height="11" rx="2" fill="#161b22"><title>2026-01-01: 0 contributions</title></rect><rect x="244" y="154" width="11" height="11" rx="2" fill="#161b22"><title>2026-01-02: 0 contributions</title></rect><rect x="244" y="168" width="11" height="11" rx="2" fill="#161b22"><title>2026-01-03: 0 contributions</title></rect><rect x="244" y="182" width="11" height="11" rx="2" fill="#161b22"><title>2026-01-04: 0 contributions</title></rect><rect x="244" y="196" width="11" height="11" rx="2" fill="#161b22"><title>2026-01-05: 0 contributions</title></rect><rect x="244" y="210" width="11" height="11" rx="2" fill="#161b22"><title>2026-01-06: 0 contributions</title></rect><rect x="244" y="224" width="11" height="11" rx="2" fill="#161b22"><title>2026-01-07: 0 contributions</title></rect><rect x="244" y="238" width="11" height="11" rx="2" fill="#161b22"><title>2026-01-08: 0 contributions</title></rect><rect x="258" y="154" width="11" height="11" rx="2" fill="#161b22"><title>2026-01-09: 0 contributions</title></rect><rect x="258" y="168" width="11" height="11" rx="2" fill="#161b22"><title>2026-01-10: 0 contributions</title></rect><rect x="258" y="182" width="11" height="11" rx="2" fill="#161b22"><title>2026-01-11: 0 contributions</title></rect><rect x="258" y="196" width="11" height="11" rx="2" fill="#161b22"><title>2026-01-12: 0 contributions</title></rect><rect x="258" y="210" width="11" height="11" rx="2" fill="#161b22"><title>2026-01-13: 0 contributions</title></rect><rect x="258" y="224" width="11" height="11" rx="2" fill="#161b22"><title>2026-01-14: 0 contributions</title></rect><rect x="258" y="238" width="11" height="11" rx="2" fill="#161b22"><title>2026-01-15: 0 contributions</title></rect><rect x="272" y="154" width="11" height="11" rx="2" fill="#161b22"><title>2026-01-16: 0 contributions</title></rect><rect x="272" y="168" width="11" height="11" rx="2" fill="#161b22"><title>2026-01-17: 0 contributions</title></rect><rect x="272" y="182" width="11" height="11" rx="2" fill="#161b22"><title>2026-01-18: 0 contributions</title></rect><rect x="272" y="196" width="11" height="11" rx="2" fill="#161b22"><title>2026-01-19: 0 contributions</title></rect><rect x="272" y="210" width="11" height="11" rx="2" fill="#161b22"><title>2026-01-20: 0 contributions</title></rect><rect x="272" y="224" width="11" height="11" rx="2" fill="#161b22"><title>2026-01-21: 0 contributions</title></rect><rect x="272" y="238" width="11" height="11" rx="2" fill="#161b22"><title>2026-01-22: 0 contributions</title></rect><rect x="286" y="154" width="11" height="11" rx="2" fill="#161b22"><title>2026-01-23: 0 contributions</title></rect><rect x="286" y="168" width="11" height="11" rx="2" fill="#161b22"><title>2026-01-24: 0 contributions</title></rect><rect x="286" y="182" width="11" height="11" rx="2" fill="#161b22"><title>2026-01-25: 0 contributions</title></rect><rect x="286" y="196" width="11" height="11" rx="2" fill="#161b22"><title>2026-01-26: 0 contributions</title></rect><rect x="286" y="210" width="11" height="11" rx="2" fill="#161b22"><title>2026-01-27: 0 contributions</title></rect><rect x="286" y="224" width="11" height="11" rx="2" fill="#161b22"><title>2026-01-28: 0 contributions</title></rect><rect x="286" y="238" width="11" height="11" rx="2" fill="#161b22"><title>2026-01-29: 0 contributions</title></rect><rect x="300" y="154" width="11" height="11" rx="2" fill="#161b22"><title>2026-01-30: 0 contributions</title></rect><rect x="300" y="168" width="11" height="11" rx="2" fill="#161b22"><title>2026-01-31: 0 contributions</title></rect><rect x="300" y="182" width="11" height="11" rx="2" fill="#0e4429"><title>2026-02-01: 2 contributions</title></rect><rect x="300" y="196" width="11" height="11" rx="2" fill="#161b22"><title>2026-02-02: 0 contributions</title></rect><rect x="300" y="210" width="11" height="11" rx="2" fill="#161b22"><title>2026-02-03: 0 contributions</title></rect><rect x="300" y="224" width="11" height="11" rx="2" fill="#161b22"><title>2026-02-04: 0 contributions</title></rect><rect x="300" y="238" width="11" height="11" rx="2" fill="#161b22"><title>2026-02-05: 0 contributions</title></rect><rect x="314" y="154" width="11" height="11" rx="2" fill="#161b22"><title>2026-02-06: 0 contributions</title></rect><rect x="314" y="168" width="11" height="11" rx="2" fill="#161b22"><title>2026-02-07: 0 contributions</title></rect><rect x="314" y="182" width="11" height="11" rx="2" fill="#161b22"><title>2026-02-08: 0 contributions</title></rect><rect x="314" y="196" width="11" height="11" rx="2" fill="#161b22"><title>2026-02-09: 0 contributions</title></rect><rect x="314" y="210" width="11" height="11" rx="2" fill="#161b22"><title>2026-02-10: 0 contributions</title></rect><rect x="314" y="224" width="11" height="11" rx="2" fill="#161b22"><title>2026-02-11: 0 contributions</title></rect><rect x="314" y="238" width="11" height="11" rx="2" fill="#161b22"><title>2026-02-12: 0 contributions</title></rect><rect x="328" y="154" width="11" height="11" rx="2" fill="#161b22"><title>2026-02-13: 0 contributions</title></rect><rect x="328" y="168" width="11" height="11" rx="2" fill="#161b22"><title>2026-02-14: 0 contributions</title></rect><rect x="328" y="182" width="11" height="11" rx="2" fill="#161b22"><title>2026-02-15: 0 contributions</title></rect><rect x="328" y="196" width="11" height="11" rx="2" fill="#161b22"><title>2026-02-16: 0 contributions</title></rect><rect x="328" y="210" width="11" height="11" rx="2" fill="#161b22"><title>2026-02-17: 0 contributions</title></rect><rect x="328" y="224" width="11" height="11" rx="2" fill="#161b22"><title>2026-02-18: 0 contributions</title></rect><rect x="328" y="238" width="11" height="11" rx="2" fill="#161b22"><title>2026-02-19: 0 contributions</title></rect><rect x="342" y="154" width="11" height="11" rx="2" fill="#161b22"><title>2026-02-20: 0 contributions</title></rect><rect x="342" y="168" width="11" height="11" rx="2" fill="#161b22"><title>2026-02-21: 0 contributions</title></rect><rect x="342" y="182" width="11" height="11" rx="2" fill="#161b22"><title>2026-02-22: 0 contributions</title></rect><rect x="342" y="196" width="11" height="11" rx="2" fill="#161b22"><title>2026-02-23: 0 contributions</title></rect><rect x="342" y="210" width="11" height="11" rx="2" fill="#161b22"><title>2026-02-24: 0 contributions</title></rect><rect x="342" y="224" width="11" height="11" rx="2" fill="#161b22"><title>2026-02-25: 0 contributions</title></rect><rect x="342" y="238" width="11" height="11" rx="2" fill="#161b22"><title>2026-02-26: 0 contributions</title></rect><rect x="356" y="154" width="11" height="11" rx="2" fill="#161b22"><title>2026-02-27: 0 contributions</title></rect><rect x="356" y="168" width="11" height="11" rx="2" fill="#161b22"><title>2026-02-28: 0 contributions</title></rect><rect x="356" y="182" width="11" height="11" rx="2" fill="#006d32"><title>2026-03-01: 14 contributions</title></rect><rect x="356" y="196" width="11" height="11" rx="2" fill="#006d32"><title>2026-03-02: 12 contributions</title></rect><rect x="356" y="210" width="11" height="11" rx="2" fill="#006d32"><title>2026-03-03: 11 contributions</title></rect><rect x="356" y="224" width="11" height="11" rx="2" fill="#006d32"><title>2026-03-04: 12 contributions</title></rect><rect x="356" y="238" width="11" height="11" rx="2" fill="#39d353"><title>2026-03-05: 41 contributions</title></rect><rect x="370" y="154" width="11" height="11" rx="2" fill="#0e4429"><title>2026-03-06: 5 contributions</title></rect><rect x="370" y="168" width="11" height="11" rx="2" fill="#0e4429"><title>2026-03-07: 6 contributions</title></rect><rect x="370" y="182" width="11" height="11" rx="2" fill="#0e4429"><title>2026-03-08: 1 contributions</title></rect><rect x="370" y="196" width="11" height="11" rx="2" fill="#161b22"><title>2026-03-09: 0 contributions</title></rect><rect x="370" y="210" width="11" height="11" rx="2" fill="#161b22"><title>2026-03-10: 0 contributions</title></rect><rect x="370" y="224" width="11" height="11" rx="2" fill="#161b22"><title>2026-03-11: 0 contributions</title></rect><rect x="370" y="238" width="11" height="11" rx="2" fill="#161b22"><title>2026-03-12: 0 contributions</title></rect><rect x="384" y="154" width="11" height="11" rx="2" fill="#161b22"><title>2026-03-13: 0 contributions</title></rect><rect x="384" y="168" width="11" height="11" rx="2" fill="#161b22"><title>2026-03-14: 0 contributions</title></rect><rect x="384" y="182" width="11" height="11" rx="2" fill="#161b22"><title>2026-03-15: 0 contributions</title></rect><rect x="384" y="196" width="11" height="11" rx="2" fill="#161b22"><title>2026-03-16: 0 contributions</title></rect><rect x="384" y="210" width="11" height="11" rx="2" fill="#161b22"><title>2026-03-17: 0 contributions</title></rect><rect x="384" y="224" width="11" height="11" rx="2" fill="#161b22"><title>2026-03-18: 0 contributions</title></rect><rect x="384" y="238" width="11" height="11" rx="2" fill="#161b22"><title>2026-03-19: 0 contributions</title></rect><rect x="398" y="154" width="11" height="11" rx="2" fill="#161b22"><title>2026-03-20: 0 contributions</title></rect><rect x="398" y="168" width="11" height="11" rx="2" fill="#161b22"><title>2026-03-21: 0 contributions</title></rect><rect x="398" y="182" width="11" height="11" rx="2" fill="#161b22"><title>2026-03-22: 0 contributions</title></rect><rect x="398" y="196" width="11" height="11" rx="2" fill="#161b22"><title>2026-03-23: 0 contributions</title></rect><rect x="398" y="210" width="11" height="11" rx="2" fill="#161b22"><title>2026-03-24: 0 contributions</title></rect><rect x="398" y="224" width="11" height="11" rx="2" fill="#161b22"><title>2026-03-25: 0 contributions</title></rect><rect x="398" y="238" width="11" height="11" rx="2" fill="#161b22"><title>2026-03-26: 0 contributions</title></rect><rect x="412" y="154" width="11" height="11" rx="2" fill="#161b22"><title>2026-03-27: 0 contributions</title></rect><rect x="412" y="168" width="11" height="11" rx="2" fill="#161b22"><title>2026-03-28: 0 contributions</title></rect><rect x="412" y="182" width="11" height="11" rx="2" fill="#161b22"><title>2026-03-29: 0 contributions</title></rect><rect x="412" y="196" width="11" height="11" rx="2" fill="#161b22"><title>2026-03-30: 0 contributions</title></rect><rect x="412" y="210" width="11" height="11" rx="2" fill="#161b22"><title>2026-03-31: 0 contributions</title></rect><rect x="412" y="224" width="11" height="11" rx="2" fill="#161b22"><title>2026-04-01: 0 contributions</title></rect><rect x="412" y="238" width="11" height="11" rx="2" fill="#161b22"><title>2026-04-02: 0 contributions</title></rect><rect x="426" y="154" width="11" height="11" rx="2" fill="#161b22"><title>2026-04-03: 0 contributions</title></rect><rect x="426" y="168" width="11" height="11" rx="2" fill="#161b22"><title>2026-04-04: 0 contributions</title></rect><rect x="426" y="182" width="11" height="11" rx="2" fill="#161b22"><title>2026-04-05: 0 contributions</title></rect><rect x="426" y="196" width="11" height="11" rx="2" fill="#0e4429"><title>2026-04-06: 2 contributions</title></rect><rect x="426" y="210" width="11" height="11" rx="2" fill="#0e4429"><title>2026-04-07: 1 contributions</title></rect><rect x="426" y="224" width="11" height="11" rx="2" fill="#161b22"><title>2026-04-08: 0 contributions</title></rect><rect x="426" y="238" width="11" height="11" rx="2" fill="#161b22"><title>2026-04-09: 0 contributions</title></rect><rect x="440" y="154" width="11" height="11" rx="2" fill="#161b22"><title>2026-04-10: 0 contributions</title></rect><rect x="440" y="168" width="11" height="11" rx="2" fill="#161b22"><title>2026-04-11: 0 contributions</title></rect><rect x="440" y="182" width="11" height="11" rx="2" fill="#161b22"><title>2026-04-12: 0 contributions</title></rect><rect x="440" y="196" width="11" height="11" rx="2" fill="#161b22"><title>2026-04-13: 0 contributions</title></rect><rect x="440" y="210" width="11" height="11" rx="2" fill="#161b22"><title>2026-04-14: 0 contributions</title></rect><rect x="440" y="224" width="11" height="11" rx="2" fill="#161b22"><title>2026-04-15: 0 contributions</title></rect><rect x="440" y="238" width="11" height="11" rx="2" fill="#161b22"><title>2026-04-16: 0 contributions</title></rect><rect x="454" y="154" width="11" height="11" rx="2" fill="#161b22"><title>2026-04-17: 0 contributions</title></rect><rect x="454" y="168" width="11" height="11" rx="2" fill="#0e4429"><title>2026-04-18: 1 contributions</title></rect><rect x="454" y="182" width="11" height="11" rx="2" fill="#161b22"><title>2026-04-19: 0 contributions</title></rect><rect x="454" y="196" width="11" height="11" rx="2" fill="#161b22"><title>2026-04-20: 0 contributions</title></rect><rect x="454" y="210" width="11" height="11" rx="2" fill="#161b22"><title>2026-04-21: 0 contributions</title></rect><rect x="454" y="224" width="11" height="11" rx="2" fill="#161b22"><title>2026-04-22: 0 contributions</title></rect><rect x="454" y="238" width="11" height="11" rx="2" fill="#161b22"><title>2026-04-23: 0 contributions</title></rect><rect x="468" y="154" width="11" height="11" rx="2" fill="#161b22"><title>2026-04-24: 0 contributions</title></rect><rect x="468" y="168" width="11" height="11" rx="2" fill="#161b22"><title>2026-04-25: 0 contributions</title></rect><rect x="468" y="182" width="11" height="11" rx="2" fill="#161b22"><title>2026-04-26: 0 contributions</title></rect><rect x="468" y="196" width="11" height="11" rx="2" fill="#0e4429"><title>2026-04-27: 1 contributions</title></rect><rect x="468" y="210" width="11" height="11" rx="2" fill="#0e4429"><title>2026-04-28: 3 contributions</title></rect><rect x="468" y="224" width="11" height="11" rx="2" fill="#161b22"><title>2026-04-29: 0 contributions</title></rect><rect x="468" y="238" width="11" height="11" rx="2" fill="#161b22"><title>2026-04-30: 0 contributions</title></rect><rect x="482" y="154" width="11" height="11" rx="2" fill="#0e4429"><title>2026-05-01: 3 contributions</title></rect><rect x="482" y="168" width="11" height="11" rx="2" fill="#161b22"><title>2026-05-02: 0 contributions</title></rect><rect x="482" y="182" width="11" height="11" rx="2" fill="#161b22"><title>2026-05-03: 0 contributions</title></rect><rect x="482" y="196" width="11" height="11" rx="2" fill="#161b22"><title>2026-05-04: 0 contributions</title></rect><rect x="482" y="210" width="11" height="11" rx="2" fill="#161b22"><title>2026-05-05: 0 contributions</title></rect><rect x="482" y="224" width="11" height="11" rx="2" fill="#161b22"><title>2026-05-06: 0 contributions</title></rect><rect x="482" y="238" width="11" height="11" rx="2" fill="#161b22"><title>2026-05-07: 0 contributions</title></rect><rect x="496" y="154" width="11" height="11" rx="2" fill="#161b22"><title>2026-05-08: 0 contributions</title></rect><rect x="496" y="168" width="11" height="11" rx="2" fill="#161b22"><title>2026-05-09: 0 contributions</title></rect><rect x="496" y="182" width="11" height="11" rx="2" fill="#161b22"><title>2026-05-10: 0 contributions</title></rect><rect x="496" y="196" width="11" height="11" rx="2" fill="#161b22"><title>2026-05-11: 0 contributions</title></rect><rect x="496" y="210" width="11" height="11" rx="2" fill="#161b22"><title>2026-05-12: 0 contributions</title></rect><rect x="496" y="224" width="11" height="11" rx="2" fill="#161b22"><title>2026-05-13: 0 contributions</title></rect><rect x="496" y="238" width="11" height="11" rx="2" fill="#161b22"><title>2026-05-14: 0 contributions</title></rect><rect x="510" y="154" width="11" height="11" rx="2" fill="#161b22"><title>2026-05-15: 0 contributions</title></rect><rect x="510" y="168" width="11" height="11" rx="2" fill="#161b22"><title>2026-05-16: 0 contributions</title></rect><rect x="510" y="182" width="11" height="11" rx="2" fill="#161b22"><title>2026-05-17: 0 contributions</title></rect><rect x="510" y="196" width="11" height="11" rx="2" fill="#161b22"><title>2026-05-18: 0 contributions</title></rect><rect x="510" y="210" width="11" height="11" rx="2" fill="#161b22"><title>2026-05-19: 0 contributions</title></rect><rect x="510" y="224" width="11" height="11" rx="2" fill="#161b22"><title>2026-05-20: 0 contributions</title></rect><rect x="510" y="238" width="11" height="11" rx="2" fill="#161b22"><title>2026-05-21: 0 contributions</title></rect><rect x="524" y="154" width="11" height="11" rx="2" fill="#161b22"><title>2026-05-22: 0 contributions</title></rect><rect x="524" y="168" width="11" height="11" rx="2" fill="#161b22"><title>2026-05-23: 0 contributions</title></rect><rect x="524" y="182" width="11" height="11" rx="2" fill="#161b22"><title>2026-05-24: 0 contributions</title></rect><rect x="524" y="196" width="11" height="11" rx="2" fill="#161b22"><title>2026-05-25: 0 contributions</title></rect><rect x="524" y="210" width="11" height="11" rx="2" fill="#161b22"><title>2026-05-26: 0 contributions</title></rect><rect x="524" y="224" width="11" height="11" rx="2" fill="#161b22"><title>2026-05-27: 0 contributions</title></rect><rect x="524" y="238" width="11" height="11" rx="2" fill="#161b22"><title>2026-05-28: 0 contributions</title></rect><rect x="538" y="154" width="11" height="11" rx="2" fill="#161b22"><title>2026-05-29: 0 contributions</title></rect><rect x="538" y="168" width="11" height="11" rx="2" fill="#0e4429"><title>2026-05-30: 5 contributions</title></rect><rect x="538" y="182" width="11" height="11" rx="2" fill="#0e4429"><title>2026-05-31: 2 contributions</title></rect><rect x="538" y="196" width="11" height="11" rx="2" fill="#161b22"><title>2026-06-01: 0 contributions</title></rect><rect x="538" y="210" width="11" height="11" rx="2" fill="#161b22"><title>2026-06-02: 0 contributions</title></rect><rect x="538" y="224" width="11" height="11" rx="2" fill="#161b22"><title>2026-06-03: 0 contributions</title></rect><rect x="538" y="238" width="11" height="11" rx="2" fill="#161b22"><title>2026-06-04: 0 contributions</title></rect><rect x="552" y="154" width="11" height="11" rx="2" fill="#161b22"><title>2026-06-05: 0 contributions</title></rect><rect x="552" y="168" width="11" height="11" rx="2" fill="#161b22"><title>2026-06-06: 0 contributions</title></rect><rect x="552" y="182" width="11" height="11" rx="2" fill="#161b22"><title>2026-06-07: 0 contributions</title></rect><rect x="552" y="196" width="11" height="11" rx="2" fill="#161b22"><title>2026-06-08: 0 contributions</title></rect><rect x="552" y="210" width="11" height="11" rx="2" fill="#161b22"><title>2026-06-09: 0 contributions</title></rect><rect x="552" y="224" width="11" height="11" rx="2" fill="#161b22"><title>2026-06-10: 0 contributions</title></rect><rect x="552" y="238" width="11" height="11" rx="2" fill="#161b22"><title>2026-06-11: 0 contributions</title></rect><rect x="566" y="154" width="11" height="11" rx="2" fill="#161b22"><title>2026-06-12: 0 contributions</title></rect><rect x="566" y="168" width="11" height="11" rx="2" fill="#161b22"><title>2026-06-13: 0 contributions</title></rect><rect x="566" y="182" width="11" height="11" rx="2" fill="#161b22"><title>2026-06-14: 0 contributions</title></rect><rect x="566" y="196" width="11" height="11" rx="2" fill="#161b22"><title>2026-06-15: 0 contributions</title></rect><rect x="566" y="210" width="11" height="11" rx="2" fill="#161b22"><title>2026-06-16: 0 contributions</title></rect><rect x="566" y="224" width="11" height="11" rx="2" fill="#161b22"><title>2026-06-17: 0 contributions</title></rect><rect x="566" y="238" width="11" height="11" rx="2" fill="#161b22"><title>2026-06-18: 0 contributions</title></rect><rect x="580" y="154" width="11" height="11" rx="2" fill="#161b22"><title>2026-06-19: 0 contributions</title></rect><rect x="580" y="168" width="11" height="11" rx="2" fill="#161b22"><title>2026-06-20: 0 contributions</title></rect><rect x="580" y="182" width="11" height="11" rx="2" fill="#161b22"><title>2026-06-21: 0 contributions</title></rect><rect x="580" y="196" width="11" height="11" rx="2" fill="#161b22"><title>2026-06-22: 0 contributions</title></rect><rect x="580" y="210" width="11" height="11" rx="2" fill="#161b22"><title>2026-06-23: 0 contributions</title></rect><rect x="580" y="224" width="11" height="11" rx="2" fill="#161b22"><title>2026-06-24: 0 contributions</title></rect><rect x="580" y="238" width="11" height="11" rx="2" fill="#161b22"><title>2026-06-25: 0 contributions</title></rect><rect x="594" y="154" width="11" height="11" rx="2" fill="#161b22"><title>2026-06-26: 0 contributions</title></rect><rect x="594" y="168" width="11" height="11" rx="2" fill="#161b22"><title>2026-06-27: 0 contributions</title></rect><rect x="594" y="182" width="11" height="11" rx="2" fill="#161b22"><title>2026-06-28: 0 contributions</title></rect><rect x="594" y="196" width="11" height="11" rx="2" fill="#161b22"><title>2026-06-29: 0 contributions</title></rect><rect x="594" y="210" width="11" height="11" rx="2" fill="#161b22"><title>2026-06-30: 0 contributions</title></rect><rect x="594" y="224" width="11" height="11" rx="2" fill="#161b22"><title>2026-07-01: 0 contributions</title></rect><rect x="594" y="238" width="11" height="11" rx="2" fill="#0e4429"><title>2026-07-02: 1 contributions</title></rect><rect x="608" y="154" width="11" height="11" rx="2" fill="#161b22"><title>2026-07-03: 0 contributions</title></rect><rect x="608" y="168" width="11" height="11" rx="2" fill="#161b22"><title>2026-07-04: 0 contributions</title></rect><rect x="608" y="182" width="11" height="11" rx="2" fill="#161b22"><title>2026-07-05: 0 contributions</title></rect><rect x="608" y="196" width="11" height="11" rx="2" fill="#161b22"><title>2026-07-06: 0 contributions</title></rect><rect x="608" y="210" width="11" height="11" rx="2" fill="#161b22"><title>2026-07-07: 0 contributions</title></rect><rect x="608" y="224" width="11" height="11" rx="2" fill="#0e4429"><title>2026-07-08: 9 contributions</title></rect><rect x="608" y="238" width="11" height="11" rx="2" fill="#161b22"><title>2026-07-09: 0 contributions</title></rect><rect x="622" y="154" width="11" height="11" rx="2" fill="#161b22"><title>2026-07-10: 0 contributions</title></rect><rect x="622" y="168" width="11" height="11" rx="2" fill="#161b22"><title>2026-07-11: 0 contributions</title></rect><rect x="622" y="182" width="11" height="11" rx="2" fill="#161b22"><title>2026-07-12: 0 contributions</title></rect><rect x="622" y="196" width="11" height="11" rx="2" fill="#161b22"><title>2026-07-13: 0 contributions</title></rect><rect x="622" y="210" width="11" height="11" rx="2" fill="#161b22"><title>2026-07-14: 0 contributions</title></rect><rect x="622" y="224" width="11" height="11" rx="2" fill="#161b22"><title>2026-07-15: 0 contributions</title></rect><rect x="622" y="238" width="11" height="11" rx="2" fill="#161b22"><title>2026-07-16: 0 contributions</title></rect><rect x="636" y="154" width="11" height="11" rx="2" fill="#0e4429"><title>2026-07-17: 7 contributions</title></rect><rect x="636" y="168" width="11" height="11" rx="2" fill="#161b22"><title>2026-07-18: 0 contributions</title></rect><rect x="636" y="182" width="11" height="11" rx="2" fill="#161b22"><title>2026-07-19: 0 contributions</title></rect><rect x="636" y="196" width="11" height="11" rx="2" fill="#161b22"><title>2026-07-20: 0 contributions</title></rect><rect x="636" y="210" width="11" height="11" rx="2" fill="#161b22"><title>2026-07-21: 0 contributions</title></rect><rect x="636" y="224" width="11" height="11" rx="2" fill="#161b22"><title>2026-07-22: 0 contributions</title></rect><rect x="636" y="238" width="11" height="11" rx="2" fill="#161b22"><title>2026-07-23: 0 contributions</title></rect><rect x="650" y="154" width="11" height="11" rx="2" fill="#161b22"><title>2026-07-24: 0 contributions</title></rect><rect x="650" y="168" width="11" height="11" rx="2" fill="#161b22"><title>2026-07-25: 0 contributions</title></rect><rect x="650" y="182" width="11" height="11" rx="2" fill="#161b22"><title>2026-07-26: 0 contributions</title></rect><rect x="650" y="196" width="11" height="11" rx="2" fill="#161b22"><title>2026-07-27: 0 contributions</title></rect><rect x="650" y="210" width="11" height="11" rx="2" fill="#161b22"><title>2026-07-28: 0 contributions</title></rect><rect x="650" y="224" width="11" height="11" rx="2" fill="#161b22"><title>2026-07-29: 0 contributions</title></rect><rect x="650" y="238" width="11" height="11" rx="2" fill="#161b22"><title>2026-07-30: 0 contributions</title></rect><rect x="664" y="154" width="11" height="11" rx="2" fill="#161b22"><title>2026-07-31: 0 contributions</title></rect><rect x="664" y="168" width="11" height="11" rx="2" fill="#161b22"><title>2026-08-01: 0 contributions</title></rect><rect x="664" y="182" width="11" height="11" rx="2" fill="#161b22"><title>2026-08-02: 0 contributions</title></rect><rect x="664" y="196" width="11" height="11" rx="2" fill="#161b22"><title>2026-08-03: 0 contributions</title></rect><rect x="664" y="210" width="11" height="11" rx="2" fill="#161b22"><title>2026-08-04: 0 contributions</title></rect><rect x="664" y="224" width="11" height="11" rx="2" fill="#161b22"><title>2026-08-05: 0 contributions</title></rect><rect x="664" y="238" width="11" height="11" rx="2" fill="#161b22"><title>2026-08-06: 0 contributions</title></rect><rect x="678" y="154" width="11" height="11" rx="2" fill="#161b22"><title>2026-08-07: 0 contributions</title></rect><rect x="678" y="168" width="11" height="11" rx="2" fill="#161b22"><title>2026-08-08: 0 contributions</title></rect><rect x="678" y="182" width="11" height="11" rx="2" fill="#161b22"><title>2026-08-09: 0 contributions</title></rect><rect x="678" y="196" width="11" height="11" rx="2" fill="#161b22"><title>2026-08-10: 0 contributions</title></rect><rect x="678" y="210" width="11" height="11" rx="2" fill="#161b22"><title>2026-08-11: 0 contributions</title></rect><rect x="678" y="224" width="11" height="11" rx="2" fill="#161b22"><title>2026-08-12: 0 contributions</title></rect><rect x="678" y="238" width="11" height="11" rx="2" fill="#161b22"><title>2026-08-13: 0 contributions</title></rect><rect x="692" y="154" width="11" height="11" rx="2" fill="#161b22"><title>2026-08-14: 0 contributions</title></rect><rect x="692" y="168" width="11" height="11" rx="2" fill="#161b22"><title>2026-08-15: 0 contributions</title></rect><rect x="692" y="182" width="11" height="11" rx="2" fill="#161b22"><title>2026-08-16: 0 contributions</title></rect><rect x="692" y="196" width="11" height="11" rx="2" fill="#161b22"><title>2026-08-17: 0 contributions</title></rect><rect x="692" y="210" width="11" height="11" rx="2" fill="#161b22"><title>2026-08-18: 0 contributions</title></rect><rect x="692" y="224" width="11" height="11" rx="2" fill="#0e4429"><title>2026-08-19: 1 contributions</title></rect><rect x="692" y="238" width="11" height="11" rx="2" fill="#161b22"><title>2026-08-20: 0 contributions</title></rect><rect x="706" y="154" width="11" height="11" rx="2" fill="#161b22"><title>2026-08-21: 0 contributions</title></rect><rect x="706" y="168" width="11" height="11" rx="2" fill="#161b22"><title>2026-08-22: 0 contributions</title></rect><rect x="706" y="182" width="11" height="11" rx="2" fill="#161b22"><title>2026-08-23: 0 contributions</title></rect><rect x="706" y="196" width="11" height="11" rx="2" fill="#161b22"><title>2026-08-24: 0 contributions</title></rect><rect x="706" y="210" width="11" height="11" rx="2" fill="#0e4429"><title>2026-08-25: 1 contributions</title></rect><rect x="706" y="224" width="11" height="11" rx="2" fill="#161b22"><title>2026-08-26: 0 contributions</title></rect><rect x="706" y="238" width="11" height="11" rx="2" fill="#0e4429"><title>2026-08-27: 3 contributions</title></rect><rect x="720" y="154" width="11" height="11" rx="2" fill="#0e4429"><title>2026-08-28: 1 contributions</title></rect><rect x="720" y="168" width="11" height="11" rx="2" fill="#0e4429"><title>2026-08-29: 2 contributions</title></rect><rect x="720" y="182" width="11" height="11" rx="2" fill="#0e4429"><title>2026-08-30: 3 contributions</title></rect><rect x="720" y="196" width="11" height="11" rx="2" fill="#0e4429"><title>2026-08-31: 2 contributions</title></rect><rect x="720" y="210" width="11" height="11" rx="2" fill="#161b22"><title>2026-09-01: 0 contributions</title></rect><rect x="720" y="224" width="11" height="11" rx="2" fill="#161b22"><title>2026-09-02: 0 contributions</title></rect><rect x="720" y="238" width="11" height="11" rx="2" fill="#161b22"><title>2026-09-03: 0 contributions</title></rect><rect x="734" y="154" width="11" height="11" rx="2" fill="#161b22"><title>2026-09-04: 0 contributions</title></rect><rect x="734" y="168" width="11" height="11" rx="2" fill="#161b22"><title>2026-09-05: 0 contributions</title></rect><rect x="734" y="182" width="11" height="11" rx="2" fill="#161b22"><title>2026-09-06: 0 contributions</title></rect><rect x="734" y="196" width="11" height="11" rx="2" fill="#161b22"><title>2026-09-07: 0 contributions</title></rect><rect x="734" y="210" width="11" height="11" rx="2" fill="#161b22"><title>2026-09-08: 0 contributions</title></rect><rect x="734" y="224" width="11" height="11" rx="2" fill="#161b22"><title>2026-09-09: 0 contributions</title></rect><rect x="734" y="238" width="11" height="11" rx="2" fill="#161b22"><title>2026-09-10: 0 contributions</title></rect><rect x="748" y="154" width="11" height="11" rx="2" fill="#0e4429"><title>2026-09-11: 1 contributions</title></rect><rect x="748" y="168" width="11" height="11" rx="2" fill="#161b22"><title>2026-09-12: 0 contributions</title></rect><rect x="748" y="182" width="11" height="11" rx="2" fill="#161b22"><title>2026-09-13: 0 contributions</title></rect><rect x="748" y="196" width="11" height="11" rx="2" fill="#161b22"><title>2026-09-14: 0 contributions</title></rect><rect x="748" y="210" width="11" height="11" rx="2" fill="#161b22"><title>2026-09-15: 0 contributions</title></rect><rect x="748" y="224" width="11" height="11" rx="2" fill="#161b22"><title>2026-09-16: 0 contributions</title></rect><rect x="748" y="238" width="11" height="11" rx="2" fill="#161b22"><title>2026-09-17: 0 contributions</title></rect><rect x="762" y="154" width="11" height="11" rx="2" fill="#161b22"><title>2026-09-18: 0 contributions</title></rect><rect x="762" y="168" width="11" height="11" rx="2" fill="#161b22"><title>2026-09-19: 0 contributions</title></rect><rect x="762" y="182" width="11" height="11" rx="2" fill="#0e4429"><title>2026-09-20: 2 contributions</title></rect><rect x="762" y="196" width="11" height="11" rx="2" fill="#161b22"><title>2026-09-21: 0 contributions</title></rect><rect x="762" y="210" width="11" height="11" rx="2" fill="#161b22"><title>2026-09-22: 0 contributions</title></rect><rect x="762" y="224" width="11" height="11" rx="2" fill="#161b22"><title>2026-09-23: 0 contributions</title></rect><rect x="762" y="238" width="11" height="11" rx="2" fill="#0e4429"><title>2026-09-24: 2 contributions</title></rect></g>

  <g font-family="Inter,Segoe UI,Arial,sans-serif" font-size="10" fill="#8b949e">
    <text x="48" y="251">Public repos: 6</text>
    <text x="210" y="251">Followers: 1</text>
    <text x="360" y="251">Stars: 0</text>
    <text x="760" y="251">github.com/shabbir-369</text>
  </g>
</svg>